<svg xmlns="http://www.w3.org/2000/svg" version="1.1" xmlns:xlink="http://www.w3.org/1999/xlink" xmlns:svgjs="http://svgjs.com/svgjs" width="300" height="300"><svg version="1.1" id="SvgjsSvg1000" xmlns="http://www.w3.org/2000/svg" xmlns:xlink="http://www.w3.org/1999/xlink" x="0px" y="0px" width="300" viewBox="0 0 300 300" enable-background="new 0 0 300 300" xml:space="preserve">
<path fill="#FFFFFF" opacity="1.000000" stroke="none" d="
M301.000000,107.000000
	C301.000000,171.999985 301.000000,236.499985 301.000000,301.000000
	C201.000031,301.000000 101.000061,301.000000 1.000066,301.000000
	C1.000044,201.000046 1.000044,101.000092 1.000022,1.000107
	C100.999939,1.000071 200.999878,1.000071 300.999908,1.000036
	C301.000000,36.166668 301.000000,71.333336 301.000000,107.000000
M203.500000,35.999249
	C150.675293,35.999249 97.850487,36.042282 45.026051,35.922218
	C40.522053,35.911987 38.908943,37.208584 38.916763,41.884567
	C39.035503,112.872841 39.027195,183.861404 38.931149,254.849747
	C38.925270,259.195984 39.929131,261.096283 44.760296,261.087708
	C115.915184,260.961365 187.070389,260.974060 258.225372,261.066925
	C262.486603,261.072479 264.083160,259.823029 264.076416,255.366837
	C263.968964,184.211884 263.965576,113.056679 264.081299,41.901752
	C264.088837,37.256271 262.529510,35.863949 257.990356,35.915833
	C240.162247,36.119625 222.330429,35.999249 203.500000,35.999249
z"></path>
<path fill="#000000" opacity="1.000000" stroke="none" d="
M204.000000,35.999249
	C222.330429,35.999249 240.162247,36.119625 257.990356,35.915833
	C262.529510,35.863949 264.088837,37.256271 264.081299,41.901752
	C263.965576,113.056679 263.968964,184.211884 264.076416,255.366837
	C264.083160,259.823029 262.486603,261.072479 258.225372,261.066925
	C187.070389,260.974060 115.915184,260.961365 44.760296,261.087708
	C39.929131,261.096283 38.925270,259.195984 38.931149,254.849747
	C39.027195,183.861404 39.035503,112.872841 38.916763,41.884567
	C38.908943,37.208584 40.522053,35.911987 45.026051,35.922218
	C97.850487,36.042282 150.675293,35.999249 204.000000,35.999249
M261.999969,230.500000
	C261.999969,166.431335 261.999969,102.362679 261.999969,38.297310
	C188.035019,38.297310 114.665054,38.297310 41.297295,38.297310
	C41.297295,111.964935 41.297295,185.334900 41.297295,258.702759
	C114.964890,258.702759 188.334854,258.702759 261.999969,258.702759
	C261.999969,249.438492 261.999969,240.469254 261.999969,230.500000
z"></path>
<path fill="#FFFFFF" opacity="1.000000" stroke="none" d="
M261.999969,231.000000
	C261.999969,240.469254 261.999969,249.438492 261.999969,258.702759
	C188.334854,258.702759 114.964890,258.702759 41.297295,258.702759
	C41.297295,185.334900 41.297295,111.964935 41.297295,38.297310
	C114.665054,38.297310 188.035019,38.297310 261.999969,38.297310
	C261.999969,102.362679 261.999969,166.431335 261.999969,231.000000
M141.737579,130.869751
	C139.104355,114.718491 131.449493,102.466217 115.714981,95.895035
	C98.617561,88.754669 80.855751,91.544449 63.336525,90.919807
	C63.336525,130.316711 63.336525,169.014481 63.336525,207.837189
	C74.396515,207.837189 85.266556,208.686554 95.957870,207.665146
	C120.238945,205.345459 138.033630,193.516647 141.474991,167.008972
	C142.978973,155.424271 141.841660,143.496658 141.737579,130.869751
M169.524948,103.713593
	C177.624237,103.713593 185.723526,103.713593 194.344177,103.713593
	C194.344177,138.784698 194.344177,173.321320 194.344177,207.793732
	C199.491089,207.793732 204.105179,207.793732 209.205017,207.793732
	C209.205017,173.030182 209.205017,138.478775 209.205017,103.587212
	C221.143112,103.587212 232.591141,103.587212 244.405762,103.587212
	C244.926132,99.290169 245.410507,95.290367 245.912476,91.145302
	C216.348495,91.145302 187.266373,91.145302 158.211075,91.145302
	C158.211075,95.410522 158.211075,99.435768 158.211075,103.713593
	C161.911240,103.713593 165.222992,103.713593 169.524948,103.713593
z"></path>
<path fill="#040404" opacity="1.000000" stroke="none" d="
M141.820679,131.297272
	C141.841660,143.496658 142.978973,155.424271 141.474991,167.008972
	C138.033630,193.516647 120.238945,205.345459 95.957870,207.665146
	C85.266556,208.686554 74.396515,207.837189 63.336525,207.837189
	C63.336525,169.014481 63.336525,130.316711 63.336525,90.919807
	C80.855751,91.544449 98.617561,88.754669 115.714981,95.895035
	C131.449493,102.466217 139.104355,114.718491 141.820679,131.297272
M109.780609,191.427902
	C116.690559,187.386673 121.590790,181.562347 123.779861,173.924149
	C128.466614,157.570953 128.850006,141.010849 123.867508,124.695778
	C120.877426,114.904831 115.102814,106.702187 104.246391,104.762131
	C95.703659,103.235535 86.910805,103.108582 78.213486,102.358582
	C78.213486,134.322403 78.213486,165.065460 78.213486,196.022141
	C88.896423,195.890137 99.488922,197.437576 109.780609,191.427902
z"></path>
<path fill="#050505" opacity="1.000000" stroke="none" d="
M169.029846,103.713593
	C165.222992,103.713593 161.911240,103.713593 158.211075,103.713593
	C158.211075,99.435768 158.211075,95.410522 158.211075,91.145302
	C187.266373,91.145302 216.348495,91.145302 245.912476,91.145302
	C245.410507,95.290367 244.926132,99.290169 244.405762,103.587212
	C232.591141,103.587212 221.143112,103.587212 209.205017,103.587212
	C209.205017,138.478775 209.205017,173.030182 209.205017,207.793732
	C204.105179,207.793732 199.491089,207.793732 194.344177,207.793732
	C194.344177,173.321320 194.344177,138.784698 194.344177,103.713593
	C185.723526,103.713593 177.624237,103.713593 169.029846,103.713593
z"></path>
<path fill="#FEFEFE" opacity="1.000000" stroke="none" d="
M109.471573,191.641083
	C99.488922,197.437576 88.896423,195.890137 78.213486,196.022141
	C78.213486,165.065460 78.213486,134.322403 78.213486,102.358582
	C86.910805,103.108582 95.703659,103.235535 104.246391,104.762131
	C115.102814,106.702187 120.877426,114.904831 123.867508,124.695778
	C128.850006,141.010849 128.466614,157.570953 123.779861,173.924149
	C121.590790,181.562347 116.690559,187.386673 109.471573,191.641083
z"></path>
</svg><style>@media (prefers-color-scheme: light) { :root { filter: none; } }
</style></svg>
