<svg width="267" height="305" viewBox="0 0 267 305" fill="none" xmlns="http://www.w3.org/2000/svg">
<g clip-path="url(#clip0_1_2)">
<path fill-rule="evenodd" clip-rule="evenodd" d="M0 50.9499L133.254 0L266.507 50.9499L133.254 7.83845L0 50.9499ZM0 242.208L133.254 304.916L266.507 238.289L133.254 297.077L0 242.208Z" fill="#BF4848"/>
<path d="M115.82 163.697C115.569 163.697 115.315 163.649 115.068 163.55C114.054 163.136 113.565 161.975 113.983 160.957L149.768 73.4831C150.185 72.4692 151.354 71.9841 152.36 72.3976C153.374 72.8112 153.863 73.9722 153.446 74.9901L117.661 162.464C117.347 163.232 116.603 163.697 115.82 163.697Z" fill="#EBEDF3"/>
<path d="M155.581 147.793C155.124 147.793 154.662 147.634 154.289 147.311C153.454 146.596 153.358 145.343 154.074 144.508L176.817 117.972L154.07 91.4313C153.354 90.6003 153.45 89.3438 154.285 88.6281C155.12 87.9124 156.372 88.0078 157.088 88.8428L180.944 116.676C181.585 117.419 181.585 118.517 180.944 119.26L157.088 147.093C156.698 147.558 156.142 147.793 155.581 147.793Z" fill="#EBEDF3"/>
<path d="M111.844 147.793C111.283 147.793 110.726 147.558 110.337 147.097L86.4801 119.264C85.84 118.52 85.84 117.423 86.4801 116.68L110.337 88.8468C111.052 88.0118 112.309 87.9164 113.14 88.6321C113.971 89.3438 114.07 90.6002 113.351 91.4313L90.6073 117.972L113.355 144.512C114.07 145.343 113.975 146.6 113.14 147.315C112.762 147.634 112.301 147.793 111.844 147.793Z" fill="#EBEDF3"/>
<path d="M14 223.38V186.499H23.1673C28.9628 186.499 31.8078 189.713 31.8078 195.614V214.265C31.8078 220.166 28.9628 223.38 23.1673 223.38H14ZM23.062 191.768H19.7954V218.111H23.062C24.906 218.111 26.0124 217.163 26.0124 214.528V195.351C26.0124 192.716 24.906 191.768 23.062 191.768ZM44.1416 191.768V202.042H52.0971V207.31H44.1416V218.111H54.1519V223.38H38.3461V186.499H54.1519V191.768H44.1416ZM78.6034 223.38H72.7026C72.3864 222.431 72.1757 221.852 72.1757 218.849V213.053C72.1757 209.629 71.0166 208.364 68.3823 208.364H66.3803V223.38H60.5848V186.499H69.3307C75.3369 186.499 77.9185 189.292 77.9185 194.982V197.88C77.9185 201.673 76.7067 204.096 74.1251 205.308V205.414C77.0228 206.625 77.9711 209.365 77.9711 213.211V218.901C77.9711 220.693 78.0238 222.01 78.6034 223.38ZM69.1726 191.768H66.3803V203.095H68.6458C70.8059 203.095 72.123 202.147 72.123 199.197V195.561C72.123 192.927 71.2274 191.768 69.1726 191.768ZM82.9289 191.768V186.499H100.842V191.768H94.7832V223.38H88.9878V191.768H82.9289ZM106.221 223.38V186.499H112.017V223.38H106.221ZM127.09 186.499L131.305 212.684H131.41L135.309 186.499H143.37V223.38H137.891V196.931H137.785L133.887 223.38H128.407L124.192 197.3H124.087V223.38H119.029V186.499H127.09ZM155.757 194.982V214.897C155.757 217.531 156.916 218.532 158.76 218.532C160.604 218.532 161.763 217.531 161.763 214.897V194.982C161.763 192.348 160.604 191.347 158.76 191.347C156.916 191.347 155.757 192.348 155.757 194.982ZM149.961 214.528V195.351C149.961 189.45 153.07 186.078 158.76 186.078C164.45 186.078 167.558 189.45 167.558 195.351V214.528C167.558 220.429 164.45 223.801 158.76 223.801C153.07 223.801 149.961 220.429 149.961 214.528ZM186.53 223.38L179.418 196.668H179.312V223.38H174.096V186.499H181.367L187.215 208.575H187.321V186.499H192.484V223.38H186.53ZM199.496 223.38V186.499H205.292V223.38H199.496ZM212.093 186.499H217.889V214.95C217.889 217.584 219.048 218.532 220.892 218.532C222.736 218.532 223.895 217.584 223.895 214.95V186.499H229.374V214.581C229.374 220.482 226.424 223.854 220.734 223.854C215.044 223.854 212.093 220.482 212.093 214.581V186.499ZM235.439 195.351C235.439 189.45 238.336 186.078 243.974 186.078C249.611 186.078 252.509 189.45 252.509 195.351V196.51H247.029V194.982C247.029 192.348 245.976 191.347 244.132 191.347C242.288 191.347 241.234 192.348 241.234 194.982C241.234 197.669 242.393 199.671 246.186 202.99C251.034 207.258 252.561 210.313 252.561 214.528C252.561 220.429 249.611 223.801 243.921 223.801C238.231 223.801 235.281 220.429 235.281 214.528V212.263H240.76V214.897C240.76 217.531 241.919 218.48 243.763 218.48C245.607 218.48 246.766 217.531 246.766 214.897C246.766 212.21 245.607 210.208 241.814 206.889C236.966 202.621 235.439 199.566 235.439 195.351Z" fill="#BF4848"/>
</g>
<defs>
<clipPath id="clip0_1_2">
<rect width="266.507" height="304.916" fill="white"/>
</clipPath>
</defs>
</svg>
