<svg xmlns="http://www.w3.org/2000/svg" version="1.1" xmlns:xlink="http://www.w3.org/1999/xlink" xmlns:svgjs="http://svgjs.dev/svgjs" width="1500" height="1518" viewBox="0 0 1500 1518"><g transform="matrix(1,0,0,1,1.325901639344238,0.6145748987853494)"><svg viewBox="0 0 244 247" data-background-color="#243837" preserveAspectRatio="xMidYMid meet" height="1518" width="1500" xmlns="http://www.w3.org/2000/svg" xmlns:xlink="http://www.w3.org/1999/xlink"><g id="tight-bounds" transform="matrix(1,0,0,1,-0.21567999999999188,-0.09999999999999432)"><svg viewBox="0 0 244.43135999999998 247.2" height="247.2" width="244.43135999999998"><g><svg></svg></g><g><svg viewBox="0 0 244.43135999999998 247.2" height="247.2" width="244.43135999999998"><g transform="matrix(1,0,0,1,0,107.48618348318851)"><svg viewBox="0 0 244.43135999999998 32.227633033622965" height="32.227633033622965" width="244.43135999999998"><g><svg viewBox="0 0 244.43135999999998 32.227633033622965" height="32.227633033622965" width="244.43135999999998"><g><svg viewBox="0 0 244.43135999999998 32.227633033622965" height="32.227633033622965" width="244.43135999999998"><g><svg viewBox="0 0 244.43135999999998 32.227633033622965" height="32.227633033622965" width="244.43135999999998"><g id="textblocktransform"><svg viewBox="0 0 244.43135999999998 32.227633033622965" height="32.227633033622965" width="244.43135999999998" id="textblock"><g><svg viewBox="0 0 244.43135999999998 32.227633033622965" height="32.227633033622965" width="244.43135999999998"><g transform="matrix(1,0,0,1,0,0)"><svg width="244.43135999999998" viewBox="4 -34.1 264.68 34.9" height="32.227633033622965" data-palette-color="#416B95"><path d="M4 0L4-34.1 12.45-34.1Q17.7-34.1 21.5-32.08 25.3-30.05 27.3-26.2 29.3-22.35 29.3-17L29.3-17Q29.3-9 24.85-4.5 20.4 0 12.45 0L12.45 0 4 0ZM7.75-3.4L12.35-3.4Q18.45-3.4 21.9-6.75 25.35-10.1 25.35-17L25.35-17Q25.35-23.95 21.9-27.3 18.45-30.65 12.35-30.65L12.35-30.65 7.75-30.65 7.75-3.4ZM45.3-24.2Q48.45-24.2 51-22.65 53.55-21.1 55-18.43 56.45-15.75 56.45-12.45L56.45-12.45Q56.45-11.5 56.4-11L56.4-11 37.15-11Q37.35-7.4 39.5-4.85 41.65-2.3 45.35-2.3L45.35-2.3Q48.35-2.3 50.32-3.43 52.3-4.55 53.5-6.55L53.5-6.55 56.2-4.75Q54.55-2.15 51.85-0.68 49.15 0.8 45.45 0.8L45.45 0.8Q42.05 0.8 39.4-0.8 36.75-2.4 35.25-5.25 33.75-8.1 33.75-11.7L33.75-11.7Q33.75-15.3 35.22-18.15 36.7-21 39.32-22.6 41.95-24.2 45.3-24.2L45.3-24.2ZM37.35-13.8L53.05-13.8Q52.55-17.45 50.6-19.28 48.65-21.1 45.3-21.1L45.3-21.1Q42.05-21.1 39.97-19.03 37.9-16.95 37.35-13.8L37.35-13.8ZM72.95-24.2Q74.15-24.2 75.25-23.85L75.25-23.85 75.25-20.75Q74.2-21.25 72.95-21.25L72.95-21.25Q70.8-21.25 68.95-20.05 67.1-18.85 65.97-16.57 64.85-14.3 64.85-11.2L64.85-11.2 64.85 0 61.45 0 61.45-23.4 64.85-23.4 64.85-18.7Q66.2-21.3 68.27-22.75 70.35-24.2 72.95-24.2L72.95-24.2ZM90.44 0L86.74 0 86.74-31 75.99-31 75.99-34.1 101.19-34.1 101.19-31 90.44-31 90.44 0ZM110.34 0L106.94 0 106.94-23.4 110.34-23.4 110.34 0ZM108.64-27.95Q107.49-27.95 106.72-28.75 105.94-29.55 105.94-30.7L105.94-30.7Q105.94-31.8 106.72-32.58 107.49-33.35 108.64-33.35L108.64-33.35Q109.74-33.35 110.54-32.58 111.34-31.8 111.34-30.65L111.34-30.65Q111.34-29.55 110.54-28.75 109.74-27.95 108.64-27.95L108.64-27.95ZM143.39-24.2Q146.64-24.2 148.79-21.93 150.94-19.65 150.94-15.65L150.94-15.65 150.94 0 147.54 0 147.54-14.15Q147.54-17.85 146.14-19.48 144.74-21.1 142.49-21.1L142.49-21.1Q139.74-21.1 138.21-18.98 136.69-16.85 136.44-13.2L136.44-13.2 136.44 0 133.04 0 133.04-14.15Q133.04-17.85 131.64-19.48 130.24-21.1 127.99-21.1L127.99-21.1Q124.94-21.1 123.41-18.55 121.89-16 121.89-11.7L121.89-11.7 121.89 0 118.49 0 118.49-23.4 121.89-23.4 121.89-19.75Q123.04-21.9 124.81-23.05 126.59-24.2 128.89-24.2L128.89-24.2Q131.44-24.2 133.34-22.83 135.24-21.45 135.99-18.9L135.99-18.9Q137.09-21.4 138.99-22.8 140.89-24.2 143.39-24.2L143.39-24.2ZM167.19 0.8Q163.84 0.8 161.19-0.8 158.54-2.4 157.04-5.28 155.54-8.15 155.54-11.75L155.54-11.75Q155.54-15.35 157.01-18.18 158.49-21 161.11-22.6 163.74-24.2 167.09-24.2L167.09-24.2Q170.44-24.2 173.09-22.6 175.74-21 177.24-18.15 178.74-15.3 178.74-11.7L178.74-11.7Q178.74-8.1 177.26-5.25 175.79-2.4 173.16-0.8 170.54 0.8 167.19 0.8L167.19 0.8ZM167.09-2.3Q169.49-2.3 171.36-3.5 173.24-4.7 174.29-6.85 175.34-9 175.34-11.7L175.34-11.7Q175.34-14.4 174.29-16.55 173.24-18.7 171.36-19.9 169.49-21.1 167.09-21.1L167.09-21.1Q164.74-21.1 162.89-19.9 161.04-18.7 159.99-16.57 158.94-14.45 158.94-11.75L158.94-11.75Q158.94-9 159.99-6.85 161.04-4.7 162.89-3.5 164.74-2.3 167.09-2.3L167.09-2.3ZM194.68-24.2Q197.13-24.2 199.21-23.2 201.28-22.2 202.51-20.25 203.73-18.3 203.73-15.65L203.73-15.65 203.73 0 200.33 0 200.33-14.15Q200.33-21.1 194.13-21.1L194.13-21.1Q190.53-21.1 188.73-18.55 186.93-16 186.93-11.7L186.93-11.7 186.93 0 183.53 0 183.53-23.4 186.93-23.4 186.93-19.5Q188.13-21.75 190.11-22.98 192.08-24.2 194.68-24.2L194.68-24.2ZM215.63 0L212.23 0 212.23-23.4 215.63-23.4 215.63 0ZM213.93-27.95Q212.78-27.95 212.01-28.75 211.23-29.55 211.23-30.7L211.23-30.7Q211.23-31.8 212.01-32.58 212.78-33.35 213.93-33.35L213.93-33.35Q215.03-33.35 215.83-32.58 216.63-31.8 216.63-30.65L216.63-30.65Q216.63-29.55 215.83-28.75 215.03-27.95 213.93-27.95L213.93-27.95ZM240.93-23.4L244.33-23.4 244.33 0 240.93 0 240.93-3.9Q239.73-1.65 237.75-0.43 235.78 0.8 233.18 0.8L233.18 0.8Q230.73 0.8 228.65-0.2 226.58-1.2 225.35-3.15 224.13-5.1 224.13-7.75L224.13-7.75 224.13-23.4 227.53-23.4 227.53-9.25Q227.53-2.3 233.73-2.3L233.73-2.3Q237.33-2.3 239.13-4.85 240.93-7.4 240.93-11.7L240.93-11.7 240.93-23.4ZM258.88 0.8Q255.48 0.8 252.9-0.65 250.33-2.1 248.98-4.75L248.98-4.75 252.03-6.25Q253.88-2.3 259.28-2.3L259.28-2.3Q261.88-2.3 263.58-3.25 265.28-4.2 265.28-6.2L265.28-6.2Q265.28-8.25 263.9-9.25 262.53-10.25 259.08-10.55L259.08-10.55Q254.28-10.95 252.2-12.7 250.13-14.45 250.13-17.35L250.13-17.35Q250.13-20.6 252.48-22.4 254.83-24.2 258.93-24.2L258.93-24.2Q265.88-24.2 268.38-18.7L268.38-18.7 265.33-17.2Q264.48-19.2 262.85-20.15 261.23-21.1 258.68-21.1L258.68-21.1Q256.08-21.1 254.7-20.15 253.33-19.2 253.33-17.45L253.33-17.45Q253.33-15.8 254.8-14.78 256.28-13.75 259.88-13.45L259.88-13.45Q264.33-13.05 266.5-11.28 268.68-9.5 268.68-6.6L268.68-6.6Q268.68-4.25 267.33-2.58 265.98-0.9 263.73-0.05 261.48 0.8 258.88 0.8L258.88 0.8Z" opacity="1" transform="matrix(1,0,0,1,0,0)" fill="#416B95" class="wordmark-text-0" data-fill-palette-color="primary" id="text-0"></path></svg></g></svg></g></svg></g></svg></g><g></g></svg></g></svg></g></svg></g><path d="M0 101.486L0 1 244.431 1 244.431 101.486 241.525 101.486 241.525 3.906 2.906 3.906 2.906 101.486 0 101.486M0 145.714L0 246.2 244.431 246.2 244.431 145.714 241.525 145.714 241.525 243.294 2.906 243.294 2.906 145.714 0 145.714" fill="#416B95" stroke="transparent" data-fill-palette-color="tertiary"></path></svg></g><defs></defs></svg><rect width="244.43135999999998" height="247.2" fill="none" stroke="none" visibility="hidden"></rect></g></svg></g></svg>
